<svg width="1440" height="1212" viewBox="0 0 1440 1212" fill="none" xmlns="http://www.w3.org/2000/svg">
<g opacity="0.8">
<path d="M657.706 118.163C845.299 272.784 862.395 520.639 696.077 671.761C529.76 822.884 242.864 820.178 55.2704 665.558C-132.323 510.937 -149.419 263.081 16.8986 111.959C183.217 -39.1637 470.112 -36.4582 657.706 118.163Z" stroke="#333842" stroke-opacity="0.24" stroke-width="1.5"/>
<path d="M708.552 117.429C896.146 272.05 913.242 519.905 746.924 671.028C580.606 822.15 293.711 819.445 106.117 664.824C-81.4761 510.203 -98.5725 262.348 67.7454 111.225C234.063 -39.8976 520.959 -37.1921 708.552 117.429Z" stroke="#333842" stroke-opacity="0.24" stroke-width="1.5"/>
<path d="M759.4 116.696C946.993 271.317 964.089 519.172 797.771 670.295C631.454 821.417 344.558 818.712 156.965 664.091C-30.6288 509.47 -47.7252 261.615 118.593 110.492C284.911 -40.6305 571.806 -37.925 759.4 116.696Z" stroke="#333842" stroke-opacity="0.24" stroke-width="1.5"/>
<path d="M810.246 115.961C997.839 270.582 1014.94 518.437 848.618 669.56C682.3 820.683 395.404 817.977 207.811 663.356C20.2172 508.735 3.12091 260.88 169.439 109.757C335.757 -41.3651 622.652 -38.6596 810.246 115.961Z" stroke="#333842" stroke-opacity="0.24" stroke-width="1.5"/>
<path d="M861.093 115.228C1048.69 269.849 1065.78 517.704 899.465 668.827C733.147 819.949 446.251 817.244 258.658 662.623C71.0644 508.002 53.9681 260.147 220.286 109.024C386.604 -42.0985 673.5 -39.393 861.093 115.228Z" stroke="#333842" stroke-opacity="0.24" stroke-width="1.5"/>
<path d="M911.94 114.494C1099.53 269.115 1116.63 516.97 950.312 668.093C783.994 819.216 497.098 816.51 309.505 661.889C121.911 507.268 104.815 259.413 271.133 108.29C437.451 -42.8322 724.346 -40.1267 911.94 114.494Z" stroke="#333842" stroke-opacity="0.24" stroke-width="1.5"/>
<path d="M962.787 113.76C1150.38 268.381 1167.48 516.237 1001.16 667.359C834.841 818.482 547.945 815.776 360.352 661.155C172.758 506.534 155.662 258.679 321.98 107.557C488.298 -43.5661 775.193 -40.8605 962.787 113.76Z" stroke="#333842" stroke-opacity="0.24" stroke-width="1.5"/>
<path d="M1013.63 113.027C1201.23 267.648 1218.32 515.503 1052.01 666.626C885.688 817.748 598.792 815.043 411.199 660.422C223.606 505.801 206.509 257.946 372.827 106.823C539.145 -44.2995 826.041 -41.5939 1013.63 113.027Z" stroke="#333842" stroke-opacity="0.24" stroke-width="1.5"/>
<path d="M1064.48 112.293C1252.07 266.914 1269.17 514.769 1102.85 665.892C936.534 817.015 649.638 814.309 462.045 659.688C274.452 505.067 257.355 257.212 423.673 106.089C589.991 -45.0331 876.887 -42.3276 1064.48 112.293Z" stroke="#333842" stroke-opacity="0.24" stroke-width="1.5"/>
<path d="M1115.33 111.559C1302.92 266.18 1320.02 514.035 1153.7 665.158C987.381 816.28 700.485 813.575 512.892 658.954C325.299 504.333 308.202 256.478 474.52 105.355C640.838 -45.7672 927.734 -43.0617 1115.33 111.559Z" stroke="#333842" stroke-opacity="0.24" stroke-width="1.5"/>
<path d="M1166.17 110.825C1353.77 265.446 1370.86 513.301 1204.55 664.424C1038.23 815.547 751.332 812.841 563.739 658.22C376.146 503.599 359.049 255.744 525.367 104.621C691.685 -46.5011 978.581 -43.7956 1166.17 110.825Z" stroke="#333842" stroke-opacity="0.24" stroke-width="1.5"/>
<path d="M1217.02 110.092C1404.61 264.713 1421.71 512.568 1255.39 663.691C1089.08 814.813 802.18 812.108 614.586 657.487C426.993 502.866 409.897 255.011 576.214 103.888C742.532 -47.2343 1029.43 -44.5288 1217.02 110.092Z" stroke="#333842" stroke-opacity="0.24" stroke-width="1.5"/>
<path d="M1265.22 109.934C1452.81 264.555 1469.91 512.41 1303.59 663.533C1137.27 814.655 850.377 811.95 662.783 657.329C475.19 502.708 458.094 254.853 624.412 103.73C790.729 -47.3922 1077.63 -44.6867 1265.22 109.934Z" stroke="#333842" stroke-opacity="0.24" stroke-width="1.5"/>
<path d="M1313.42 109.776C1501.01 264.397 1518.11 512.252 1351.79 663.375C1185.47 814.497 898.575 811.792 710.982 657.171C523.388 502.55 506.292 254.695 672.61 103.572C838.928 -47.5504 1125.82 -44.8449 1313.42 109.776Z" stroke="#333842" stroke-opacity="0.24" stroke-width="1.5"/>
<path d="M1361.61 109.619C1549.21 264.239 1566.3 512.095 1399.99 663.217C1233.67 814.34 946.773 811.634 759.179 657.013C571.586 502.392 554.49 254.537 720.808 103.415C887.125 -47.7079 1174.02 -45.0024 1361.61 109.619Z" stroke="#333842" stroke-opacity="0.24" stroke-width="1.5"/>
<path d="M1409.81 109.46C1597.41 264.081 1614.5 511.936 1448.18 663.059C1281.87 814.182 994.97 811.476 807.377 656.855C619.783 502.234 602.687 254.379 769.005 103.256C935.323 -47.8661 1222.22 -45.1606 1409.81 109.46Z" stroke="#333842" stroke-opacity="0.24" stroke-width="1.5"/>
</g>
</svg>
